<svg preserveAspectRatio="none" width="100%" height="100%" overflow="visible" style="display: block;" viewBox="0 0 24 24" fill="none" xmlns="http://www.w3.org/2000/svg">
<g id="Group">
<g id="Vector">
</g>
<path id="Vector_2" fill-rule="evenodd" clip-rule="evenodd" d="M15.7064 11.293C15.8938 11.4805 15.9992 11.7348 15.9992 12C15.9992 12.2652 15.8938 12.5195 15.7064 12.707L10.0494 18.364C9.95712 18.4595 9.84678 18.5357 9.72477 18.5881C9.60277 18.6405 9.47155 18.6681 9.33877 18.6692C9.20599 18.6704 9.07431 18.6451 8.95141 18.5948C8.82852 18.5445 8.71686 18.4703 8.62297 18.3764C8.52908 18.2825 8.45483 18.1708 8.40454 18.048C8.35426 17.9251 8.32896 17.7934 8.33012 17.6606C8.33127 17.5278 8.35886 17.3966 8.41126 17.2746C8.46367 17.1526 8.53986 17.0422 8.63537 16.95L13.5854 12L8.63537 7.05C8.45321 6.8614 8.35241 6.60879 8.35469 6.3466C8.35697 6.0844 8.46214 5.83359 8.64755 5.64818C8.83296 5.46277 9.08377 5.3576 9.34597 5.35532C9.60816 5.35305 9.86076 5.45384 10.0494 5.636L15.7064 11.293Z" fill="var(--fill-0, #1D1D1D)"/>
</g>
</svg>
