<svg preserveAspectRatio="none" width="100%" height="100%" overflow="visible" style="display: block;" viewBox="0 0 40.8333 45.5" fill="none" xmlns="http://www.w3.org/2000/svg">
<g id="Group">
<path id="Vector" d="M1.75 39.0833V6.41667C1.75 5.17899 2.24167 3.992 3.11683 3.11683C3.992 2.24167 5.17899 1.75 6.41667 1.75H37.6833C38.0546 1.75 38.4107 1.8975 38.6733 2.16005C38.9358 2.4226 39.0833 2.7787 39.0833 3.15V33.7493M6.41667 34.4167H39.0833M6.41667 43.75H39.0833" stroke="var(--stroke-0, black)" stroke-width="3.5" stroke-linecap="round"/>
<path id="Vector_2" d="M6.41667 43.7498C5.17899 43.7498 3.992 43.2582 3.11683 42.383C2.24167 41.5078 1.75 40.3208 1.75 39.0832C1.75 37.8455 2.24167 36.6585 3.11683 35.7833C3.992 34.9082 5.17899 34.4165 6.41667 34.4165" stroke="var(--stroke-0, black)" stroke-width="3.5" stroke-linecap="round" stroke-linejoin="round"/>
<path id="Vector_3" d="M13.417 11.0833H27.417" stroke="var(--stroke-0, black)" stroke-width="3.5" stroke-linecap="round"/>
</g>
</svg>
