<svg width="55" height="69" viewBox="0 0 55 69" fill="none" xmlns="http://www.w3.org/2000/svg">
<path d="M48.0295 14.508L47.9492 17.5701C48.5526 16.6218 49.0561 16.9742 49.0561 16.9742L48.9288 14.5034C48.2807 14.7583 48.0284 14.508 48.0284 14.508H48.0295Z" fill="white"/>
<path d="M26.8965 13.9902V14.1475C27.7659 13.3059 31.6039 12.671 36.208 12.671C40.8122 12.671 44.4528 13.2737 45.445 14.0832C45.4335 14.066 45.4232 14.0487 45.4106 14.0304L45.4668 14.0579V13.8891L45.4553 11.7731L48.1313 10.106L48.1463 12.7249C47.8515 12.8512 47.6473 13.1417 47.6496 13.4804C47.6519 13.9247 48.0132 14.2853 48.4605 14.2807C48.9113 14.2784 49.268 13.9144 49.2657 13.4712C49.2635 13.1325 49.057 12.8443 48.7611 12.7203L48.7438 9.7627L51.5862 8.17137L36.1071 0L20.7129 8.33556L26.885 11.8833L26.8976 13.9913L26.8965 13.9902ZM36.1438 6.78786C43.4308 6.74882 45.2408 9.43319 45.2408 9.43319L45.2443 10.0555C44.6249 9.40334 42.4031 7.68111 36.1484 7.71671C29.8845 7.75 27.6914 9.49289 27.0789 10.1554L27.0754 9.53193C27.0754 9.53193 28.8522 6.82574 36.1438 6.78786Z" fill="white"/>
<path d="M9.26148 42.6528C9.24886 42.5839 9.28786 42.4174 9.27639 42.3474C9.27639 42.3474 11.6909 16.1214 34.9319 14.9376C24.7532 15.4302 19.0444 19.7484 18.1796 20.451C18.1199 20.4993 18.0316 20.4786 17.9995 20.4097L14.8968 13.7149C14.8452 13.6046 14.6812 13.6356 14.6731 13.7573L14.0664 23.5993C14.0641 23.628 14.0515 23.6555 14.0308 23.6762C7.77265 29.7694 8.54229 38.3851 8.61341 39.0568C8.61685 39.0843 8.60882 39.1119 8.59391 39.1349L0.0222042 51.7346C-0.0615285 51.8575 0.111675 51.9895 0.208025 51.877L8.83135 41.771C8.89214 41.6987 9.00914 41.7251 9.03322 41.8169C9.0986 42.0638 9.17775 42.3612 9.26836 42.6861C9.26607 42.6746 9.26377 42.6643 9.26033 42.6528H9.26148Z" fill="white"/>
<path d="M53.2094 18.2349C12.8548 3.49378 9.27722 42.3471 9.27722 42.3471C9.28869 42.4171 9.24969 42.5836 9.26231 42.6525C9.72571 44.772 11.1033 47.1383 11.1033 47.1383C17.3844 22.8389 37.7498 18.5437 53.6349 21.2648C54.221 20.2223 54.8783 19.2498 53.2105 18.236L53.2094 18.2349Z" fill="white"/>
<path d="M53.6332 21.2635C37.7492 18.5424 17.3827 22.8388 11.1016 47.1371L12.2417 48.9178C12.2417 48.9178 12.9219 52.7733 12.0719 53.9628C11.222 55.1534 15.4132 52.0351 15.4132 52.0351C18.3014 54.1327 23.229 55.7769 25.7777 55.7769L33.3102 68.0219C32.3674 65.5269 28.9825 56.1672 36.9933 45.8454C32.1047 46.6583 28.0569 50.5608 28.0569 50.5608C28.0569 50.5608 21.6416 48.5206 22.87 41.8717L25.7926 39.6442C25.7926 39.6442 38.8481 39.8681 44.2471 51.3852C45.2955 43.0428 38.0623 35.6452 38.0623 35.6452C38.0623 35.6452 44.4042 31.6577 46.4482 27.5129L38.7334 24.9996C38.5957 24.9525 38.6405 24.747 38.785 24.7619C40.9563 24.9835 46.79 25.6828 48.7538 25.9916C49.5681 25.7195 53.1331 23.1959 53.6309 21.2624L53.6332 21.2635Z" fill="white" fill-opacity="0.8"/>
</svg>
