<svg preserveAspectRatio="none" width="100%" height="100%" overflow="visible" style="display: block;" viewBox="0 0 54.2704 68.022" fill="none" xmlns="http://www.w3.org/2000/svg">
<g id="Frame 21">
<g id="Group">
<path id="Vector" d="M48.0309 14.508L47.9506 17.5701C48.5539 16.6217 49.0575 16.9742 49.0575 16.9742L48.9301 14.5034C48.2821 14.7583 48.0297 14.508 48.0297 14.508H48.0309Z" fill="var(--fill-0, white)"/>
<path id="Vector_2" d="M26.897 13.9902V14.1475C27.7664 13.3059 31.6043 12.671 36.2085 12.671C40.8126 12.671 44.4533 13.2737 45.4455 14.0832C45.434 14.066 45.4237 14.0487 45.4111 14.0304L45.4673 14.0579V13.8891L45.4558 11.7731L48.1318 10.106L48.1467 12.7249C47.8519 12.8512 47.6478 13.1417 47.6501 13.4804C47.6523 13.9247 48.0137 14.2853 48.461 14.2807C48.9118 14.2784 49.2685 13.9144 49.2662 13.4712C49.2639 13.1325 49.0575 12.8443 48.7615 12.7203L48.7443 9.7627L51.5866 8.17137L36.1076 0L20.7134 8.33556L26.8855 11.8833L26.8981 13.9913L26.897 13.9902ZM36.1443 6.78785C43.4313 6.74882 45.2413 9.43319 45.2413 9.43319L45.2448 10.0555C44.6254 9.40334 42.4036 7.68111 36.1489 7.71671C29.885 7.75 27.6918 9.49289 27.0793 10.1554L27.0759 9.53193C27.0759 9.53193 28.8526 6.82574 36.1443 6.78785Z" fill="var(--fill-0, white)"/>
</g>
<path id="Vector_3" d="M9.26148 42.6525C9.24886 42.5837 9.28786 42.4172 9.27639 42.3471C9.27639 42.3471 11.6909 16.1211 34.9319 14.9374C24.7532 15.43 19.0444 19.7481 18.1796 20.4508C18.1199 20.499 18.0316 20.4784 17.9995 20.4095L14.8968 13.7146C14.8452 13.6044 14.6812 13.6354 14.6731 13.7571L14.0664 23.599C14.0641 23.6277 14.0515 23.6553 14.0308 23.676C7.77265 29.7692 8.54229 38.3849 8.61341 39.0565C8.61685 39.0841 8.60882 39.1117 8.59391 39.1346L0.0222042 51.7344C-0.0615285 51.8572 0.111675 51.9893 0.208025 51.8768L8.83135 41.7708C8.89214 41.6984 9.00914 41.7248 9.03322 41.8167C9.0986 42.0635 9.17775 42.3609 9.26836 42.6858C9.26607 42.6744 9.26377 42.664 9.26033 42.6525H9.26148Z" fill="var(--fill-0, white)"/>
<path id="2" d="M53.2097 18.2349C12.8551 3.49378 9.27754 42.3471 9.27754 42.3471C9.28901 42.4171 9.25001 42.5836 9.26262 42.6525C9.72602 44.772 11.1036 47.1383 11.1036 47.1383C17.3847 22.8389 37.7501 18.5437 53.6352 21.2648C54.2213 20.2223 54.8786 19.2498 53.2108 18.236L53.2097 18.2349Z" fill="var(--fill-0, white)"/>
<path id="1" d="M53.6341 21.2637C37.7501 18.5426 17.3835 22.839 11.1024 47.1372L12.2426 48.918C12.2426 48.918 12.9228 52.7735 12.0728 53.963C11.2229 55.1536 15.4141 52.0352 15.4141 52.0352C18.3023 54.1329 23.2299 55.7771 25.7786 55.7771L33.3111 68.0221C32.3683 65.5271 28.9834 56.1674 36.9942 45.8456C32.1056 46.6585 28.0577 50.561 28.0577 50.561C28.0577 50.561 21.6424 48.5208 22.8709 41.8718L25.7935 39.6444C25.7935 39.6444 38.8489 39.8683 44.248 51.3854C45.2964 43.0429 38.0632 35.6454 38.0632 35.6454C38.0632 35.6454 44.4051 31.6579 46.4491 27.5131L38.7342 24.9998C38.5966 24.9527 38.6413 24.7472 38.7859 24.7621C40.9572 24.9837 46.7909 25.6829 48.7546 25.9918C49.569 25.7197 53.134 23.1961 53.6318 21.2626L53.6341 21.2637Z" fill="var(--fill-0, white)" fill-opacity="0.8"/>
</g>
</svg>
