<svg preserveAspectRatio="none" width="100%" height="100%" overflow="visible" style="display: block;" viewBox="0 0 46.1717 39.4817" fill="none" xmlns="http://www.w3.org/2000/svg">
<g id="&#226;&#128;&#156; &#226;&#128;&#157;">
<path id="Vector" d="M6.76611 39.0843C5.72917 39.2804 5.0492 39.3399 4.72622 39.2628C4.40324 39.1856 3.84816 38.8652 3.06098 38.3017C2.8923 37.5785 2.93742 36.8894 3.19633 36.2343C3.45525 35.5792 3.8142 34.8626 4.27319 34.0846C5.34546 31.8825 6.54262 29.3007 7.86466 26.3389C9.28216 23.2634 10.1838 20.9182 10.5696 19.3033C10.533 18.8848 10.5532 18.5141 10.6304 18.1911C8.87947 18.6606 6.99388 18.1931 4.97361 16.7887C2.82128 15.0796 1.97658 13.2561 2.4395 11.3182C2.99788 9.26652 4.55463 7.18023 7.10975 5.05929C8.89205 3.74384 10.1971 2.99721 11.0248 2.81938C11.9571 2.6324 13.4014 2.87498 15.3576 3.54712C17.2275 4.43763 18.5358 5.5354 19.2824 6.84041C20.1245 8.03167 20.3435 9.33014 19.9394 10.7358C19.8361 13.1693 19.4575 15.4688 18.8037 17.6342C18.2545 19.7904 17.753 21.8898 17.2992 23.9323C16.8729 26.2887 16.0144 28.5247 14.7238 30.6404C13.4331 32.7561 11.9901 34.9379 10.3948 37.1857C10.536 37.595 10.2451 37.8839 9.52194 38.0526C8.79882 38.2213 7.88021 38.5652 6.76611 39.0843ZM30.3034 37.0251C29.2664 37.2212 28.5864 37.2807 28.2635 37.2035C27.9405 37.1264 27.3854 36.806 26.5982 36.2424C26.4295 35.5193 26.4747 34.8302 26.7336 34.1751C26.9925 33.5199 27.3514 32.8034 27.8104 32.0253C28.8827 29.8233 30.0799 27.2414 31.4019 24.2797C32.8194 21.2042 33.721 18.8589 34.1068 17.244C34.0702 16.8256 34.0905 16.4549 34.1676 16.1319C32.4167 16.6013 30.5311 16.1338 28.5109 14.7294C26.3585 13.0203 25.5138 11.1968 25.9767 9.25894C26.5351 7.20728 28.0919 5.12099 30.647 3.00005C32.4293 1.6846 33.7343 0.937967 34.562 0.760141C35.4944 0.573156 36.9386 0.815736 38.8948 1.48788C40.7647 2.37839 42.073 3.47615 42.8196 4.78117C43.6617 5.97243 43.8807 7.2709 43.4767 8.67659C43.3733 11.1101 42.9948 13.4095 42.3409 15.5749C41.7917 17.7312 41.2902 19.8306 40.8364 21.8731C40.4101 24.2294 39.5516 26.4655 38.261 28.5812C36.9704 30.6969 35.5274 32.8786 33.932 35.1264C34.0732 35.5357 33.7823 35.8247 33.0592 35.9934C32.3361 36.1621 31.4175 36.5059 30.3034 37.0251Z" fill="var(--fill-0, #0450FB)"/>
</g>
</svg>
