<svg width="56" height="56" viewBox="0 0 56 56" fill="none" xmlns="http://www.w3.org/2000/svg">
<path d="M43.6641 17.9379H40.0971L31.3456 26.6855C31.6471 27.4537 31.6748 28.3022 31.4241 29.0885C31.1735 29.8747 30.6598 30.5506 29.9694 31.0026C29.279 31.4546 28.454 31.6551 27.6332 31.5703C26.8123 31.4856 26.0457 31.1208 25.4622 30.5373C24.8787 29.9538 24.5139 29.1872 24.4291 28.3663C24.3444 27.5455 24.5449 26.7205 24.9969 26.0301C25.4489 25.3397 26.1248 24.826 26.911 24.5754C27.6973 24.3247 28.5458 24.3524 29.314 24.6539L38.0636 15.9043V12.3374C38.0637 11.8601 38.2533 11.4023 38.5906 11.0647L41.9065 7.74885C41.9678 7.6871 42.0449 7.64322 42.1293 7.62195C42.2137 7.60067 42.3023 7.6028 42.3856 7.6281C42.5562 7.67794 42.6827 7.81977 42.7172 7.99419L43.5989 12.4044L48.0072 13.2861C48.1797 13.3206 48.3216 13.4471 48.3714 13.6177C48.3966 13.7006 48.3988 13.7887 48.3779 13.8727C48.357 13.9568 48.3136 14.0336 48.2526 14.0949L44.9348 17.4108C44.5976 17.7476 44.1407 17.9372 43.6641 17.9379Z" fill="black"/>
<path d="M10.0312 28C10.0312 32.7656 11.9244 37.336 15.2942 40.7058C18.664 44.0756 23.2344 45.9688 28 45.9688C30.3597 45.9688 32.6963 45.504 34.8763 44.601C37.0564 43.698 39.0373 42.3744 40.7058 40.7058C42.3744 39.0373 43.6979 37.0564 44.601 34.8764C45.504 32.6963 45.9688 30.3597 45.9688 28C45.9688 26.2788 45.7272 24.6152 45.2768 23.0416C45.1873 22.6803 45.2414 22.2983 45.4278 21.9761C45.6142 21.6539 45.9183 21.4165 46.2761 21.314C46.6339 21.2114 47.0176 21.2517 47.3463 21.4262C47.6751 21.6008 47.9233 21.8961 48.0387 22.25C48.5639 24.0785 48.8438 26.0067 48.8438 28C48.8438 39.5115 39.5115 48.8438 28 48.8438C16.4885 48.8438 7.15625 39.5115 7.15625 28C7.15625 16.4885 16.4885 7.15626 28 7.15626C29.9454 7.15434 31.8793 7.42459 33.75 7.95934C33.9324 8.01051 34.1029 8.09722 34.2516 8.21449C34.4004 8.33176 34.5245 8.47728 34.6169 8.64269C34.7092 8.80809 34.768 8.99012 34.7897 9.1783C34.8115 9.36648 34.7958 9.5571 34.7437 9.73922C34.6915 9.92133 34.6039 10.0913 34.4858 10.2395C34.3677 10.3876 34.2215 10.5109 34.0556 10.6024C33.8897 10.6938 33.7074 10.7516 33.5191 10.7723C33.3308 10.793 33.1402 10.7763 32.9584 10.7232C31.3459 10.2629 29.677 10.03 28 10.0313C23.2344 10.0313 18.664 11.9244 15.2942 15.2942C11.9244 18.664 10.0312 23.2344 10.0312 28Z" fill="black"/>
<path d="M18.6558 27.9996C18.6612 29.2691 18.9252 30.5241 19.4318 31.6881C19.9384 32.8521 20.6769 33.9007 21.6022 34.7697C22.5276 35.6388 23.6203 36.3101 24.8138 36.7428C26.0073 37.1754 27.2764 37.3603 28.5437 37.2861C29.811 37.2119 31.0498 36.8802 32.1847 36.3112C33.3195 35.7422 34.3264 34.9479 35.144 33.9768C35.9616 33.0056 36.5727 31.8781 36.9399 30.6629C37.3072 29.4477 37.4229 28.1704 37.2801 26.909C37.2398 26.6535 37.2694 26.392 37.3658 26.1519C37.4621 25.9119 37.6215 25.7024 37.8272 25.5457C38.0329 25.3889 38.2772 25.2907 38.5341 25.2614C38.7911 25.2322 39.0512 25.273 39.2868 25.3795C39.7679 25.5942 40.0918 26.0523 40.134 26.5774C40.4316 29.0983 39.9364 31.6493 38.7174 33.8758C37.4983 36.1023 35.6158 37.8937 33.3317 39.001C31.0475 40.1083 28.4752 40.4765 25.9721 40.0544C23.4691 39.6322 21.1597 38.4408 19.365 36.6457C17.5708 34.8525 16.3791 32.5454 15.9551 30.0444C15.5311 27.5435 15.8959 24.9725 16.9989 22.6882C18.1019 20.4039 19.8884 18.5194 22.1106 17.2961C24.3328 16.0729 26.8806 15.5714 29.4007 15.8613C29.5912 15.879 29.7762 15.9346 29.945 16.0247C30.1138 16.1148 30.2629 16.2377 30.3835 16.3862C30.5042 16.5347 30.594 16.7058 30.6476 16.8894C30.7013 17.0731 30.7178 17.2656 30.6961 17.4557C30.6744 17.6457 30.615 17.8296 30.5213 17.9964C30.4277 18.1633 30.3016 18.3097 30.1506 18.4272C29.9996 18.5447 29.8267 18.6309 29.642 18.6807C29.4572 18.7305 29.2644 18.7429 29.0748 18.7172C27.7658 18.5658 26.4396 18.693 25.1832 19.0904C23.9268 19.4878 22.7686 20.1464 21.7847 21.023C20.8008 21.8996 20.0134 22.9743 19.4741 24.1767C18.9349 25.379 18.656 26.6819 18.6558 27.9996Z" fill="black"/>
</svg>
