<svg preserveAspectRatio="none" width="100%" height="100%" overflow="visible" style="display: block;" viewBox="0 0 50 31" fill="none" xmlns="http://www.w3.org/2000/svg">
<g id="fa:handshake-o" clip-path="url(#clip0_650_3245)">
<path id="Vector" d="M4.16667 18.8696C4.74537 18.8696 5.15046 18.6449 5.38194 18.1957C5.61343 17.7464 5.61343 17.2971 5.38194 16.8478C5.15046 16.3986 4.74537 16.1739 4.16667 16.1739C3.58796 16.1739 3.18287 16.3986 2.95139 16.8478C2.71991 17.2971 2.71991 17.7464 2.95139 18.1957C3.18287 18.6449 3.58796 18.8696 4.16667 18.8696ZM36.1328 17.6481C35.9881 17.4656 35.7096 17.1146 35.2973 16.5951C34.885 16.0756 34.5848 15.6966 34.3967 15.4579C34.2086 15.2192 33.9337 14.8752 33.572 14.426C33.2104 13.9767 32.9029 13.6046 32.6497 13.3098C32.3966 13.0149 32.1036 12.685 31.7708 12.32C31.4381 11.9549 31.1126 11.611 30.7943 11.288L28.0816 14.2364C26.8808 15.5562 25.3725 16.202 23.5569 16.1739C21.7412 16.1458 20.2546 15.4579 19.0972 14.1101C18.2726 13.1413 17.8639 12.0322 17.8711 10.7826C17.8783 9.53306 18.3015 8.43093 19.1406 7.47622L22.9818 3.13791C22.6635 2.98347 22.2946 2.86764 21.875 2.79042C21.4554 2.7132 21.1118 2.67108 20.8442 2.66406C20.5765 2.65704 20.1678 2.66055 19.6181 2.67459C19.0683 2.68863 18.7138 2.69565 18.5547 2.69565C17.2237 2.69565 16.0807 3.15897 15.1259 4.0856L11.697 7.41304H8.33333V18.8696C8.40567 18.8696 8.55758 18.8661 8.78906 18.859C9.02054 18.852 9.17969 18.852 9.26649 18.859C9.3533 18.8661 9.49436 18.8801 9.68967 18.9012C9.88498 18.9222 10.0333 18.9538 10.1345 18.9959C10.2358 19.038 10.3624 19.0977 10.5143 19.1749C10.6662 19.2522 10.8001 19.3469 10.9158 19.4592L17.3611 25.6087C19.0249 27.1671 20.667 27.9463 22.2873 27.9463C23.4158 27.9463 24.32 27.6164 25 26.9565C25.8247 27.2373 26.6385 27.1812 27.4414 26.788C28.2444 26.3949 28.7688 25.7982 29.0148 24.998C30.0854 25.0822 31.004 24.7733 31.7708 24.0713C32.0602 23.8186 32.3206 23.4992 32.5521 23.1131C32.7836 22.727 32.8848 22.3725 32.8559 22.0496C33.0006 22.19 33.3116 22.2602 33.7891 22.2602C34.4112 22.2602 34.9682 22.1128 35.4601 21.8179C35.952 21.5231 36.31 21.151 36.5343 20.7018C36.7585 20.2525 36.8453 19.7506 36.7947 19.196C36.7441 18.6414 36.5234 18.1255 36.1328 17.6481ZM39.5833 18.8696H41.6667V8.08696H39.6484L36.2413 4.2962C35.2865 3.22917 34.0639 2.69565 32.5738 2.69565H28.9497C27.662 2.69565 26.6059 3.16599 25.7812 4.10666L21.2457 9.22419C20.8406 9.6875 20.638 10.214 20.638 10.8037C20.638 11.3933 20.8333 11.9198 21.224 12.3832C21.8461 13.0992 22.6418 13.4642 23.6111 13.4783C24.5804 13.4923 25.3834 13.1483 26.02 12.4463L30.2083 7.8553C30.57 7.53238 30.957 7.38145 31.3694 7.40251C31.7817 7.42357 32.1217 7.61311 32.3893 7.97113C32.657 8.32914 32.7185 8.72577 32.5738 9.16101C32.8053 9.42776 33.2104 9.87002 33.7891 10.4878C34.3678 11.1055 34.8018 11.5829 35.0911 11.9198C35.5107 12.4253 36.1075 13.1659 36.8815 14.1416C37.6555 15.1174 38.1221 15.7106 38.2812 15.9212C39.0336 16.8478 39.4676 17.8306 39.5833 18.8696ZM45.8333 18.8696C46.412 18.8696 46.8171 18.6449 47.0486 18.1957C47.2801 17.7464 47.2801 17.2971 47.0486 16.8478C46.8171 16.3986 46.412 16.1739 45.8333 16.1739C45.2546 16.1739 44.8495 16.3986 44.6181 16.8478C44.3866 17.2971 44.3866 17.7464 44.6181 18.1957C44.8495 18.6449 45.2546 18.8696 45.8333 18.8696ZM50 6.73913V20.2174C50 20.5824 49.8626 20.8983 49.5877 21.1651C49.3128 21.4318 48.9873 21.5652 48.6111 21.5652H39.1927C38.8021 22.4778 38.2089 23.2254 37.4132 23.8081C36.6175 24.3907 35.7133 24.7523 34.7005 24.8927C34.2231 25.5666 33.6408 26.1387 32.9536 26.609C32.2663 27.0794 31.5249 27.3988 30.7292 27.5673C30.1215 28.3114 29.3656 28.8835 28.4614 29.2836C27.5571 29.6838 26.6276 29.8558 25.6727 29.7996C24.8047 30.2769 23.8932 30.5542 22.9384 30.6315C21.9835 30.7087 21.0612 30.6104 20.1714 30.3366C19.2817 30.0628 18.4353 29.6873 17.6324 29.2099C16.8294 28.7326 16.0807 28.164 15.3863 27.5041L9.15799 21.5652H1.38889C1.01273 21.5652 0.687211 21.4318 0.412326 21.1651C0.137442 20.8983 0 20.5824 0 20.2174V6.06522C0 5.70018 0.137442 5.38428 0.412326 5.11753C0.687211 4.85077 1.01273 4.71739 1.38889 4.71739H10.5252C10.7277 4.52083 11.0677 4.18388 11.5451 3.70652C12.0226 3.22917 12.3662 2.89221 12.576 2.69565C12.7857 2.49909 13.104 2.2183 13.5308 1.85326C13.9576 1.48822 14.3229 1.22498 14.6267 1.06352C14.9306 0.902061 15.2995 0.723053 15.7335 0.526495C16.1675 0.329937 16.616 0.193048 17.079 0.115829C17.542 0.0386096 18.0339 0 18.5547 0H21.0937C22.526 0 23.8354 0.393116 25.0217 1.17935C26.208 0.393116 27.5174 0 28.9497 0H32.5738C33.0801 0 33.5648 0.0421196 34.0278 0.126359C34.4907 0.210598 34.8994 0.312387 35.2539 0.431726C35.6084 0.551064 35.9809 0.737092 36.3715 0.98981C36.7622 1.24253 37.0841 1.46014 37.3372 1.64266C37.5904 1.82518 37.9015 2.10247 38.2704 2.47452C38.6393 2.84658 38.9214 3.14142 39.1168 3.35904C39.3121 3.57665 39.6087 3.91361 40.0065 4.36991C40.4044 4.8262 40.7046 5.16667 40.9071 5.3913H48.6111C48.9873 5.3913 49.3128 5.52468 49.5877 5.79144C49.8626 6.0582 50 6.37409 50 6.73913Z" fill="var(--fill-0, white)"/>
</g>
<defs>
<clipPath id="clip0_650_3245">
<rect width="50" height="31" fill="white"/>
</clipPath>
</defs>
</svg>
