<svg preserveAspectRatio="none" width="100%" height="100%" overflow="visible" style="display: block;" viewBox="0 0 56 56" fill="none" xmlns="http://www.w3.org/2000/svg">
<g id="ph:hand-heart-light">
<path id="Vector" d="M50.12 31.2049C49.5208 30.7434 48.823 30.4266 48.0812 30.2794C47.3393 30.1322 46.5735 30.1584 45.8434 30.3561L44.8984 30.5749C49.6562 26.1518 52.0625 21.768 52.0625 17.5002C52.0625 11.9527 47.6022 7.4377 42.1181 7.4377C40.5715 7.428 39.0439 7.7788 37.6565 8.46227C36.269 9.14574 35.0599 10.1431 34.125 11.3752C33.1901 10.1431 31.981 9.14574 30.5935 8.46227C29.2061 7.7788 27.6785 7.428 26.1319 7.4377C20.6478 7.4377 16.1875 11.9527 16.1875 17.5002C16.1875 19.9896 16.9816 22.4199 18.6572 25.0164C17.2837 25.2283 16.0141 25.8746 15.0347 26.8605L9.9575 31.9377H3.5C2.68777 31.9377 1.90882 32.2604 1.33449 32.8347C0.760155 33.409 0.4375 34.188 0.4375 35.0002V43.7502C0.4375 44.5624 0.760155 45.3414 1.33449 45.9157C1.90882 46.49 2.68777 46.8127 3.5 46.8127H26.25C26.3577 46.8127 26.4649 46.7995 26.5694 46.7733L40.5694 43.2733C40.6357 43.2558 40.7007 43.2339 40.7641 43.2077L49.2559 39.5939L49.3281 39.5611C50.079 39.1862 50.722 38.6263 51.1966 37.9341C51.6712 37.242 51.9618 36.4404 52.041 35.6049C52.1203 34.7694 51.9855 33.9275 51.6494 33.1585C51.3133 32.3894 50.787 31.7186 50.12 31.2093V31.2049ZM26.1319 10.0627C27.5753 10.0434 28.9917 10.4553 30.1997 11.2456C31.4078 12.0359 32.3525 13.1687 32.9131 14.4989C33.012 14.7397 33.1802 14.9456 33.3964 15.0905C33.6126 15.2354 33.8669 15.3127 34.1272 15.3127C34.3874 15.3127 34.6418 15.2354 34.858 15.0905C35.0742 14.9456 35.2424 14.7397 35.3412 14.4989C35.9018 13.1687 36.8466 12.0359 38.0546 11.2456C39.2627 10.4553 40.679 10.0434 42.1225 10.0627C46.0862 10.0627 49.4375 13.4686 49.4375 17.5002C49.4375 21.9277 45.8981 26.9064 39.2 31.883L35.9472 32.6311C36.2716 31.7704 36.3824 30.8439 36.2701 29.9309C36.1579 29.018 35.8258 28.1459 35.3025 27.3895C34.7792 26.633 34.0803 26.0148 33.2656 25.5878C32.4509 25.1607 31.5448 24.9377 30.625 24.9377H21.8028C19.7662 22.2405 18.8125 19.8649 18.8125 17.5002C18.8125 13.4686 22.1637 10.0627 26.1319 10.0627ZM3.0625 43.7502V35.0002C3.0625 34.8842 3.10859 34.7729 3.19064 34.6908C3.27269 34.6088 3.38397 34.5627 3.5 34.5627H9.1875V44.1877H3.5C3.38397 44.1877 3.27269 44.1416 3.19064 44.0596C3.10859 43.9775 3.0625 43.8662 3.0625 43.7502ZM48.1862 37.1877L39.83 40.7468L26.0881 44.1877H11.8125V33.7949L16.8897 28.7155C17.2545 28.3487 17.6885 28.058 18.1665 27.8601C18.6445 27.6622 19.157 27.5611 19.6744 27.5627H30.625C31.4372 27.5627 32.2162 27.8854 32.7905 28.4597C33.3648 29.034 33.6875 29.813 33.6875 30.6252C33.6875 31.4374 33.3648 32.2164 32.7905 32.7907C32.2162 33.365 31.4372 33.6877 30.625 33.6877H24.5C24.1519 33.6877 23.8181 33.826 23.5719 34.0721C23.3258 34.3183 23.1875 34.6521 23.1875 35.0002C23.1875 35.3483 23.3258 35.6821 23.5719 35.9283C23.8181 36.1744 24.1519 36.3127 24.5 36.3127H31.5C31.5986 36.3128 31.697 36.3018 31.7931 36.2799L46.4494 32.9089L46.5019 32.8958C47.0535 32.7454 47.6412 32.8042 48.1522 33.0607C48.6632 33.3173 49.0614 33.7536 49.2702 34.2858C49.4791 34.8181 49.484 35.4087 49.2839 35.9443C49.0838 36.4799 48.6929 36.9227 48.1862 37.1877Z" fill="var(--fill-0, black)"/>
</g>
</svg>
