<svg width="56" height="56" viewBox="0 0 56 56" fill="none" xmlns="http://www.w3.org/2000/svg">
<g clip-path="url(#clip0_494_15348)">
<path d="M43.9315 37.8546C42.0661 35.3383 39.4036 33.5358 36.3826 32.7441L36.2884 32.7237L34.1118 36.4165C34.1103 36.9082 33.9154 37.3793 33.5695 37.727C33.2236 38.0747 32.7548 38.2707 32.2657 38.2722C31.2503 38.2722 30.4195 37.4371 29.4503 34.9802V34.9208C29.4503 34.3056 29.2071 33.7156 28.7744 33.2806C28.3416 32.8456 27.7546 32.6012 27.1426 32.6012C26.5305 32.6012 25.9436 32.8456 25.5108 33.2806C25.078 33.7156 24.8349 34.3056 24.8349 34.9208V34.9783C23.801 37.4371 22.9629 38.2703 21.9493 38.2703C21.4602 38.2688 20.9914 38.0728 20.6455 37.7252C20.2996 37.3775 20.1047 36.9063 20.1032 36.4146L17.9949 32.7144C14.9529 33.4921 12.2658 35.2897 10.3777 37.8101L10.3518 37.8453C9.60532 39.0766 9.18873 40.4811 9.14258 41.9223V41.9352C9.15181 42.2136 9.14258 42.5383 9.14258 42.8631V46.5744C9.14258 47.5587 9.53159 48.5027 10.224 49.1988C10.9165 49.8948 11.8556 50.2858 12.8349 50.2858H41.4503C42.4295 50.2858 43.3687 49.8948 44.0611 49.1988C44.7536 48.5027 45.1426 47.5587 45.1426 46.5744V42.8631C45.1426 42.5402 45.1333 42.2136 45.1426 41.9352C45.0979 40.4771 44.674 39.0561 43.913 37.8138L43.9334 37.8509L43.9315 37.8546ZM17.4484 15.5773C17.4484 20.9958 20.8084 28.9567 27.1407 28.9567C33.3623 28.9567 36.833 20.9958 36.833 15.5773V15.4566C36.833 14.1773 36.5823 12.9104 36.0953 11.7284C35.6082 10.5464 34.8942 9.47246 33.9942 8.56781C33.0942 7.66315 32.0257 6.94554 30.8498 6.45594C29.6739 5.96635 28.4135 5.71436 27.1407 5.71436C25.8679 5.71436 24.6076 5.96635 23.4316 6.45594C22.2557 6.94554 21.1872 7.66315 20.2872 8.56781C19.3872 9.47246 18.6733 10.5464 18.1862 11.7284C17.6991 12.9104 17.4484 14.1773 17.4484 15.4566V15.5828V15.5773Z" stroke="black" stroke-width="2.57143"/>
</g>
<defs>
<clipPath id="clip0_494_15348">
<rect width="40" height="48" fill="white" transform="translate(8 4)"/>
</clipPath>
</defs>
</svg>
