<svg width="76" height="76" viewBox="0 0 76 76" fill="none" xmlns="http://www.w3.org/2000/svg">
<g clip-path="url(#clip0_494_15329)">
<path d="M33.2499 42.7511L20.8966 30.3978C20.2791 29.2514 18.9998 25.3342 22.1665 22.1675C25.3332 19.0008 29.2488 20.2786 30.3967 20.8977L32.3585 22.8594M42.7501 33.251L55.1034 45.6043C55.7209 46.7506 57.0002 50.6678 53.8335 53.8345C50.6668 57.0012 46.7512 55.7235 45.6033 55.1044L43.6431 53.1442M33.2499 33.251L45.6033 20.8977C46.7496 20.2801 50.6668 19.0008 53.8335 22.1675C57.0002 25.3342 55.7225 29.2498 55.1034 30.3978L53.1416 32.3595M42.7501 42.7511L30.3967 55.1044C29.2504 55.7219 25.3332 57.0012 22.1665 53.8345C18.9998 50.6678 20.2775 46.7522 20.8966 45.6043L22.8568 43.6441" stroke="black" stroke-width="3.35293" stroke-linecap="square"/>
</g>
<defs>
<clipPath id="clip0_494_15329">
<rect width="53.7407" height="53.7407" fill="white" transform="translate(38) rotate(45)"/>
</clipPath>
</defs>
</svg>
