<svg preserveAspectRatio="none" width="100%" height="100%" overflow="visible" style="display: block;" viewBox="0 0 30.2733 37.9443" fill="none" xmlns="http://www.w3.org/2000/svg">
<g id="Frame 21">
<g id="Group">
<path id="Vector" d="M26.7909 8.09289L26.7461 9.80101C27.0826 9.27199 27.3635 9.46861 27.3635 9.46861L27.2925 8.09033C26.931 8.23251 26.7902 8.09289 26.7902 8.09289H26.7909Z" fill="var(--fill-0, #EE606F)"/>
<path id="Vector_2" d="M15.0021 7.80405V7.89179C15.4871 7.42233 17.628 7.06816 20.1963 7.06816C22.7646 7.06816 24.7954 7.4044 25.3489 7.85593C25.3425 7.84632 25.3367 7.83671 25.3297 7.82647L25.361 7.84184V7.74769L25.3546 6.56731L26.8474 5.63736L26.8557 7.09826C26.6913 7.16871 26.5774 7.33075 26.5786 7.51968C26.5799 7.76754 26.7815 7.96865 27.031 7.96609C27.2825 7.96481 27.4815 7.76178 27.4802 7.51456C27.4789 7.32562 27.3637 7.16487 27.1987 7.0957L27.1891 5.44586L28.7746 4.55818L20.14 0L11.5527 4.64977L14.9957 6.6288L15.0027 7.80469L15.0021 7.80405ZM20.1605 3.78642C24.2253 3.76465 25.235 5.26205 25.235 5.26205L25.2369 5.60918C24.8914 5.2454 23.652 4.2847 20.163 4.30456C16.6689 4.32313 15.4455 5.29535 15.1038 5.6649L15.1019 5.31713C15.1019 5.31713 16.093 3.80756 20.1605 3.78642Z" fill="var(--fill-0, #EE606F)"/>
</g>
<path id="Vector_3" d="M5.16627 23.7926C5.15923 23.7542 5.18098 23.6613 5.17459 23.6222C5.17459 23.6222 6.52144 8.99276 19.4858 8.33244C13.8079 8.6072 10.6234 11.016 10.141 11.408C10.1077 11.4349 10.0585 11.4233 10.0405 11.3849L8.30978 7.65035C8.28099 7.58887 8.18949 7.60616 8.18501 7.67405L7.84654 13.1641C7.84526 13.1801 7.83822 13.1955 7.82671 13.207C4.33576 16.606 4.76509 21.412 4.80476 21.7867C4.80668 21.802 4.8022 21.8174 4.79388 21.8302L0.012386 28.8587C-0.034322 28.9272 0.0622949 29.0008 0.116041 28.9381L4.92633 23.3007C4.96024 23.2604 5.0255 23.2751 5.03894 23.3263C5.07541 23.464 5.11956 23.6299 5.17011 23.8112C5.16883 23.8048 5.16755 23.799 5.16563 23.7926H5.16627Z" fill="var(--fill-0, #045CA9)"/>
<path id="2" d="M29.6804 10.1719C7.16966 1.94902 5.17401 23.6223 5.17401 23.6223C5.18041 23.6614 5.15865 23.7542 5.16569 23.7927C5.42419 24.975 6.19263 26.295 6.19263 26.295C9.69637 12.7402 21.0567 10.3442 29.9178 11.8621C30.2447 11.2806 30.6113 10.7381 29.681 10.1726L29.6804 10.1719Z" fill="var(--fill-0, #0189C7)"/>
<path id="1" d="M29.9185 11.8614C21.058 10.3435 9.6971 12.7401 6.19336 26.2942L6.82936 27.2876C6.82936 27.2876 7.20878 29.4383 6.73466 30.1018C6.26054 30.7659 8.59851 29.0264 8.59851 29.0264C10.2096 30.1966 12.9583 31.1137 14.3801 31.1137L18.5819 37.9443C18.0559 36.5525 16.1678 31.3315 20.6364 25.5737C17.9094 26.0272 15.6514 28.2041 15.6514 28.2041C15.6514 28.2041 12.0728 27.066 12.7581 23.3571L14.3884 22.1146C14.3884 22.1146 21.671 22.2395 24.6827 28.6639C25.2675 24.0103 21.2327 19.8838 21.2327 19.8838C21.2327 19.8838 24.7704 17.6595 25.9106 15.3474L21.607 13.9455C21.5302 13.9192 21.5552 13.8046 21.6358 13.8129C22.847 13.9365 26.1012 14.3265 27.1966 14.4988C27.6509 14.347 29.6395 12.9393 29.9172 11.8607L29.9185 11.8614Z" fill="var(--fill-0, #00ADE9)"/>
</g>
</svg>
