<svg width="56" height="56" viewBox="0 0 56 56" fill="none" xmlns="http://www.w3.org/2000/svg">
<path d="M9.33203 44.3333V11.6667C9.33203 10.429 9.8237 9.242 10.6989 8.36683C11.574 7.49167 12.761 7 13.9987 7H45.2654C45.6367 7 45.9928 7.1475 46.2553 7.41005C46.5179 7.6726 46.6654 8.0287 46.6654 8.4V38.9993M13.9987 39.6667H46.6654M13.9987 49H46.6654" stroke="black" stroke-width="3.5" stroke-linecap="round"/>
<path d="M13.9987 48.9998C12.761 48.9998 11.574 48.5082 10.6989 47.633C9.8237 46.7578 9.33203 45.5708 9.33203 44.3332C9.33203 43.0955 9.8237 41.9085 10.6989 41.0333C11.574 40.1582 12.761 39.6665 13.9987 39.6665" stroke="black" stroke-width="3.5" stroke-linecap="round" stroke-linejoin="round"/>
<path d="M21 16.3335H35" stroke="black" stroke-width="3.5" stroke-linecap="round"/>
</svg>
