<svg preserveAspectRatio="none" width="100%" height="100%" overflow="visible" style="display: block;" viewBox="0 0 40 48" fill="none" xmlns="http://www.w3.org/2000/svg">
<g id="fontisto:person" clip-path="url(#clip0_650_3239)">
<path id="Vector" d="M35.9315 33.8546C34.0661 31.3383 31.4036 29.5358 28.3826 28.7441L28.2884 28.7237L26.1118 32.4165C26.1103 32.9082 25.9154 33.3793 25.5695 33.727C25.2236 34.0747 24.7548 34.2707 24.2657 34.2722C23.2503 34.2722 22.4195 33.4371 21.4503 30.9802V30.9208C21.4503 30.3056 21.2071 29.7156 20.7744 29.2806C20.3416 28.8456 19.7546 28.6012 19.1426 28.6012C18.5305 28.6012 17.9436 28.8456 17.5108 29.2806C17.078 29.7156 16.8349 30.3056 16.8349 30.9208V30.9783C15.801 33.4371 14.9629 34.2703 13.9493 34.2703C13.4602 34.2688 12.9914 34.0728 12.6455 33.7252C12.2996 33.3775 12.1047 32.9063 12.1032 32.4146L9.99489 28.7144C6.95287 29.4921 4.26581 31.2897 2.37766 33.8101L2.35181 33.8453C1.60532 35.0766 1.18873 36.4811 1.14258 37.9223V37.9352C1.15181 38.2136 1.14258 38.5383 1.14258 38.8631V42.5744C1.14258 43.5587 1.53159 44.5027 2.22403 45.1988C2.91647 45.8948 3.85562 46.2858 4.83489 46.2858H33.4503C34.4295 46.2858 35.3687 45.8948 36.0611 45.1988C36.7536 44.5027 37.1426 43.5587 37.1426 42.5744V38.8631C37.1426 38.5402 37.1333 38.2136 37.1426 37.9352C37.0979 36.4771 36.674 35.0561 35.913 33.8138L35.9334 33.8509L35.9315 33.8546ZM9.44842 11.5773C9.44842 16.9958 12.8084 24.9567 19.1407 24.9567C25.3623 24.9567 28.833 16.9958 28.833 11.5773V11.4566C28.833 10.1773 28.5823 8.91042 28.0953 7.72843C27.6082 6.54644 26.8942 5.47246 25.9942 4.56781C25.0942 3.66315 24.0257 2.94554 22.8498 2.45594C21.6739 1.96635 20.4135 1.71436 19.1407 1.71436C17.8679 1.71436 16.6076 1.96635 15.4316 2.45594C14.2557 2.94554 13.1872 3.66315 12.2872 4.56781C11.3872 5.47246 10.6733 6.54644 10.1862 7.72843C9.69912 8.91042 9.44842 10.1773 9.44842 11.4566V11.5828V11.5773Z" stroke="var(--stroke-0, black)" stroke-width="2.57143"/>
</g>
<defs>
<clipPath id="clip0_650_3239">
<rect width="40" height="48" fill="white"/>
</clipPath>
</defs>
</svg>
