<svg width="56" height="56" viewBox="0 0 56 56" fill="none" xmlns="http://www.w3.org/2000/svg">
<g clip-path="url(#clip0_494_15321)">
<path d="M7.16667 31.8696C7.74537 31.8696 8.15046 31.6449 8.38194 31.1957C8.61343 30.7464 8.61343 30.2971 8.38194 29.8478C8.15046 29.3986 7.74537 29.1739 7.16667 29.1739C6.58796 29.1739 6.18287 29.3986 5.95139 29.8478C5.71991 30.2971 5.71991 30.7464 5.95139 31.1957C6.18287 31.6449 6.58796 31.8696 7.16667 31.8696ZM39.1328 30.6481C38.9881 30.4656 38.7096 30.1146 38.2973 29.5951C37.885 29.0756 37.5848 28.6966 37.3967 28.4579C37.2086 28.2192 36.9337 27.8752 36.572 27.426C36.2104 26.9767 35.9029 26.6046 35.6497 26.3098C35.3966 26.0149 35.1036 25.685 34.7708 25.32C34.4381 24.9549 34.1126 24.611 33.7943 24.288L31.0816 27.2364C29.8808 28.5562 28.3725 29.202 26.5569 29.1739C24.7412 29.1458 23.2546 28.4579 22.0972 27.1101C21.2726 26.1413 20.8639 25.0322 20.8711 23.7826C20.8783 22.5331 21.3015 21.4309 22.1406 20.4762L25.9818 16.1379C25.6635 15.9835 25.2946 15.8676 24.875 15.7904C24.4554 15.7132 24.1118 15.6711 23.8442 15.6641C23.5765 15.657 23.1678 15.6606 22.6181 15.6746C22.0683 15.6886 21.7138 15.6957 21.5547 15.6957C20.2237 15.6957 19.0807 16.159 18.1259 17.0856L14.697 20.413H11.3333V31.8696C11.4057 31.8696 11.5576 31.8661 11.7891 31.859C12.0205 31.852 12.1797 31.852 12.2665 31.859C12.3533 31.8661 12.4944 31.8801 12.6897 31.9012C12.885 31.9222 13.0333 31.9538 13.1345 31.9959C13.2358 32.038 13.3624 32.0977 13.5143 32.1749C13.6662 32.2522 13.8001 32.3469 13.9158 32.4592L20.3611 38.6087C22.0249 40.1671 23.667 40.9463 25.2873 40.9463C26.4158 40.9463 27.32 40.6164 28 39.9565C28.8247 40.2373 29.6385 40.1812 30.4414 39.788C31.2444 39.3949 31.7688 38.7982 32.0148 37.998C33.0854 38.0822 34.004 37.7733 34.7708 37.0713C35.0602 36.8186 35.3206 36.4992 35.5521 36.1131C35.7836 35.727 35.8848 35.3725 35.8559 35.0496C36.0006 35.19 36.3116 35.2602 36.7891 35.2602C37.4112 35.2602 37.9682 35.1128 38.4601 34.8179C38.952 34.5231 39.31 34.151 39.5343 33.7018C39.7585 33.2525 39.8453 32.7506 39.7947 32.196C39.7441 31.6414 39.5234 31.1255 39.1328 30.6481ZM42.5833 31.8696H44.6667V21.087H42.6484L39.2413 17.2962C38.2865 16.2292 37.0639 15.6957 35.5738 15.6957H31.9497C30.662 15.6957 29.6059 16.166 28.7812 17.1067L24.2457 22.2242C23.8406 22.6875 23.638 23.214 23.638 23.8037C23.638 24.3933 23.8333 24.9198 24.224 25.3832C24.8461 26.0992 25.6418 26.4642 26.6111 26.4783C27.5804 26.4923 28.3834 26.1483 29.02 25.4463L33.2083 20.8553C33.57 20.5324 33.957 20.3815 34.3694 20.4025C34.7817 20.4236 35.1217 20.6131 35.3893 20.9711C35.657 21.3291 35.7185 21.7258 35.5738 22.161C35.8053 22.4278 36.2104 22.87 36.7891 23.4878C37.3678 24.1055 37.8018 24.5829 38.0911 24.9198C38.5107 25.4253 39.1075 26.1659 39.8815 27.1416C40.6555 28.1174 41.1221 28.7106 41.2812 28.9212C42.0336 29.8478 42.4676 30.8306 42.5833 31.8696ZM48.8333 31.8696C49.412 31.8696 49.8171 31.6449 50.0486 31.1957C50.2801 30.7464 50.2801 30.2971 50.0486 29.8478C49.8171 29.3986 49.412 29.1739 48.8333 29.1739C48.2546 29.1739 47.8495 29.3986 47.6181 29.8478C47.3866 30.2971 47.3866 30.7464 47.6181 31.1957C47.8495 31.6449 48.2546 31.8696 48.8333 31.8696ZM53 19.7391V33.2174C53 33.5824 52.8626 33.8983 52.5877 34.1651C52.3128 34.4318 51.9873 34.5652 51.6111 34.5652H42.1927C41.8021 35.4778 41.2089 36.2254 40.4132 36.8081C39.6175 37.3907 38.7132 37.7523 37.7005 37.8927C37.2231 38.5666 36.6408 39.1387 35.9536 39.609C35.2663 40.0794 34.5249 40.3988 33.7292 40.5673C33.1215 41.3114 32.3656 41.8835 31.4614 42.2836C30.5571 42.6838 29.6276 42.8558 28.6727 42.7996C27.8047 43.2769 26.8932 43.5542 25.9384 43.6315C24.9835 43.7087 24.0612 43.6104 23.1714 43.3366C22.2817 43.0628 21.4353 42.6873 20.6324 42.2099C19.8294 41.7326 19.0807 41.1639 18.3863 40.5041L12.158 34.5652H4.38889C4.01273 34.5652 3.68721 34.4318 3.41233 34.1651C3.13744 33.8983 3 33.5824 3 33.2174V19.0652C3 18.7002 3.13744 18.3843 3.41233 18.1175C3.68721 17.8508 4.01273 17.7174 4.38889 17.7174H13.5252C13.7277 17.5208 14.0677 17.1839 14.5451 16.7065C15.0226 16.2292 15.3662 15.8922 15.576 15.6957C15.7857 15.4991 16.104 15.2183 16.5308 14.8533C16.9576 14.4882 17.3229 14.225 17.6267 14.0635C17.9306 13.9021 18.2995 13.7231 18.7335 13.5265C19.1675 13.3299 19.616 13.193 20.079 13.1158C20.542 13.0386 21.0339 13 21.5547 13H24.0938C25.526 13 26.8354 13.3931 28.0217 14.1793C29.208 13.3931 30.5174 13 31.9497 13H35.5738C36.0802 13 36.5648 13.0421 37.0278 13.1264C37.4907 13.2106 37.8994 13.3124 38.2539 13.4317C38.6084 13.5511 38.9809 13.7371 39.3715 13.9898C39.7621 14.2425 40.0841 14.4601 40.3372 14.6427C40.5904 14.8252 40.9015 15.1025 41.2704 15.4745C41.6393 15.8466 41.9214 16.1414 42.1168 16.359C42.3121 16.5767 42.6087 16.9136 43.0065 17.3699C43.4044 17.8262 43.7046 18.1667 43.9071 18.3913H51.6111C51.9873 18.3913 52.3128 18.5247 52.5877 18.7914C52.8626 19.0582 53 19.3741 53 19.7391Z" fill="white"/>
</g>
<defs>
<clipPath id="clip0_494_15321">
<rect width="50" height="31" fill="white" transform="translate(3 13)"/>
</clipPath>
</defs>
</svg>
