<svg preserveAspectRatio="none" width="100%" height="100%" overflow="visible" style="display: block;" viewBox="0 0 71.562 89.6957" fill="none" xmlns="http://www.w3.org/2000/svg">
<g id="Frame 21">
<g id="Group">
<path id="Vector" d="M63.3299 19.1307L63.224 23.1685C64.0196 21.9179 64.6836 22.3827 64.6836 22.3827L64.5157 19.1247C63.6611 19.4608 63.3284 19.1307 63.3284 19.1307H63.3299Z" fill="var(--fill-0, #3393E8)"/>
<path id="Vector_2" d="M35.4629 18.4477V18.6551C36.6093 17.5454 41.6701 16.7082 47.7412 16.7082C53.8123 16.7082 58.613 17.503 59.9213 18.5703C59.9062 18.5476 59.8925 18.5249 59.8759 18.5007L59.95 18.537V18.3145L59.9349 15.5242L63.4635 13.326L63.4832 16.7793C63.0945 16.9459 62.8252 17.3289 62.8283 17.7755C62.8313 18.3614 63.3077 18.8368 63.8976 18.8307C64.492 18.8277 64.9624 18.3478 64.9594 17.7634C64.9563 17.3168 64.6841 16.9368 64.2939 16.7733L64.2712 12.8733L68.0191 10.7749L47.6081 0L27.3091 10.9914L35.4478 15.6696L35.4644 18.4492L35.4629 18.4477ZM47.6565 8.95059C57.2653 8.89911 59.6521 12.4388 59.6521 12.4388L59.6566 13.2593C58.8398 12.3994 55.9102 10.1285 47.6626 10.1754C39.4029 10.2193 36.511 12.5175 35.7034 13.3911L35.6988 12.569C35.6988 12.569 38.0417 9.00055 47.6565 8.95059Z" fill="var(--fill-0, #3393E8)"/>
</g>
<path id="Vector_3" d="M12.2124 56.2431C12.1957 56.1523 12.2471 55.9328 12.232 55.8404C12.232 55.8404 15.4158 21.2583 46.0618 19.6974C32.64 20.3469 25.1123 26.041 23.9719 26.9675C23.8933 27.0311 23.7768 27.0039 23.7345 26.913L19.6432 18.0851C19.5751 17.9397 19.3588 17.9806 19.3483 18.1411L18.5482 31.1188C18.5451 31.1567 18.5285 31.193 18.5013 31.2203C10.2491 39.2549 11.264 50.6157 11.3578 51.5014C11.3623 51.5377 11.3517 51.574 11.3321 51.6043L0.0292788 68.2186C-0.0811326 68.3806 0.147257 68.5547 0.274305 68.4063L11.6452 55.0804C11.7253 54.985 11.8796 55.0198 11.9114 55.141C11.9976 55.4665 12.1019 55.8586 12.2214 56.287C12.2184 56.2719 12.2154 56.2583 12.2108 56.2431H12.2124Z" fill="var(--fill-0, #3393E8)"/>
<path id="2" d="M70.1606 24.0458C16.9484 4.60794 12.2309 55.8406 12.2309 55.8406C12.2461 55.933 12.1946 56.1525 12.2113 56.2434C12.8223 59.0381 14.6388 62.1584 14.6388 62.1584C22.9212 30.1168 49.7754 24.453 70.7218 28.0412C71.4946 26.6665 72.3613 25.3841 70.1621 24.0473L70.1606 24.0458Z" fill="var(--fill-0, #3393E8)"/>
<path id="1" d="M70.7239 28.0393C49.779 24.4512 22.9234 30.1165 14.641 62.1566L16.1444 64.5047C16.1444 64.5047 17.0413 69.5887 15.9205 71.1571C14.7998 72.7271 20.3264 68.6152 20.3264 68.6152C24.1349 71.3812 30.6325 73.5492 33.9932 73.5492L43.9257 89.6957C42.6825 86.4058 38.2191 74.0639 48.7823 60.4534C42.3361 61.5253 36.9985 66.6712 36.9985 66.6712C36.9985 66.6712 28.5392 63.9809 30.1591 55.2135L34.0129 52.2764C34.0129 52.2764 51.228 52.5716 58.3473 67.7583C59.7297 56.7578 50.192 47.0033 50.192 47.0033C50.192 47.0033 58.5545 41.7453 61.2497 36.2798L51.0768 32.9658C50.8953 32.9037 50.9543 32.6327 51.1448 32.6524C54.008 32.9446 61.7005 33.8666 64.2898 34.2738C65.3637 33.915 70.0645 30.5873 70.7209 28.0378L70.7239 28.0393Z" fill="var(--fill-0, #3393E8)"/>
</g>
</svg>
