<svg preserveAspectRatio="none" width="100%" height="100%" overflow="visible" style="display: block;" viewBox="0 0 53.7407 53.7407" fill="none" xmlns="http://www.w3.org/2000/svg">
<g id="tdesign:system-2">
<path id="Vector" d="M26.8706 33.5882H9.40042C8.15318 33.2143 4.47866 31.349 4.47866 26.8706C4.47866 22.3922 8.15094 20.527 9.40042 20.153H12.1748M26.8706 20.153H44.3408C45.5881 20.527 49.2626 22.3922 49.2626 26.8706C49.2626 31.349 45.5903 33.2143 44.3408 33.5882H41.5687M20.153 26.8706V9.40042C20.527 8.15318 22.3922 4.47866 26.8706 4.47866C31.349 4.47866 33.2143 8.15094 33.5882 9.40042V12.1748M33.5882 26.8706V44.3408C33.2143 45.5881 31.349 49.2626 26.8706 49.2626C22.3922 49.2626 20.527 45.5903 20.153 44.3408V41.5687" stroke="var(--stroke-0, black)" stroke-width="3.35293" stroke-linecap="square"/>
</g>
</svg>
