<svg width="27" height="23" viewBox="0 0 27 23" fill="none" xmlns="http://www.w3.org/2000/svg">
<path d="M26.9924 1.96941C26.6186 6.01054 24.9989 15.832 24.1766 20.3591C23.8278 22.2774 23.13 22.9168 22.4822 22.9935C21.0369 23.1214 19.9405 22.0216 18.545 21.0753C16.3522 19.5918 15.1063 18.671 12.9882 17.2387C10.5213 15.5762 12.1161 14.6555 13.5364 13.172C13.9102 12.7884 20.2893 6.82899 20.4139 6.29188C20.4312 6.21053 20.4289 6.12607 20.4072 6.04584C20.3855 5.96561 20.345 5.89204 20.2893 5.8315C20.1398 5.70362 19.9405 5.75477 19.7661 5.78035C19.5418 5.8315 16.0532 8.21014 9.25045 12.9163C8.25371 13.6068 7.35665 13.9649 6.55926 13.9393C5.66219 13.9138 3.96773 13.4278 2.69689 12.993C1.12703 12.4815 -0.0939787 12.2001 0.00569526 11.3049C0.0555322 10.8445 0.678495 10.3842 1.84966 9.8982C9.12586 6.64996 13.96 4.50151 16.3771 3.47844C23.3045 0.511537 24.7248 0 25.6717 0C25.8711 0 26.3445 0.0511532 26.6436 0.306921C26.8927 0.511535 26.9675 0.79288 26.9924 0.997494C26.9675 1.15095 27.0173 1.61134 26.9924 1.96941Z" fill="white"/>
</svg>
