<svg preserveAspectRatio="none" width="100%" height="100%" overflow="visible" style="display: block;" viewBox="0 0 34.0375 29" fill="none" xmlns="http://www.w3.org/2000/svg">
<g id="Frame 1984078413">
<path id="Vector" d="M30.511 5.10613C30.1372 9.14726 28.5175 18.9687 27.6952 23.4958C27.3463 25.4141 26.6486 26.0535 26.0007 26.1302C24.5555 26.2581 23.459 25.1583 22.0636 24.212C19.8708 22.7285 18.6249 21.8078 16.5068 20.3755C14.0399 18.713 15.6346 17.7922 17.055 16.3088C17.4288 15.9251 23.8079 9.96571 23.9325 9.4286C23.9498 9.34725 23.9475 9.26279 23.9258 9.18256C23.9041 9.10233 23.8636 9.02876 23.8079 8.96822C23.6584 8.84034 23.459 8.89149 23.2846 8.91707C23.0603 8.96822 19.5718 11.3469 12.769 16.053C11.7723 16.7436 10.8752 17.1016 10.0778 17.0761C9.18074 17.0505 7.48629 16.5645 6.21545 16.1297C4.64558 15.6182 3.42458 15.3368 3.52425 14.4416C3.57409 13.9813 4.19705 13.5209 5.36822 13.0349C12.6444 9.78668 17.4786 7.63823 19.8957 6.61516C26.823 3.64826 28.2434 3.13672 29.1903 3.13672C29.3896 3.13672 29.8631 3.18787 30.1621 3.44364C30.4113 3.64825 30.486 3.9296 30.511 4.13421C30.486 4.28767 30.5359 4.74806 30.511 5.10613Z" fill="var(--fill-0, white)"/>
</g>
</svg>
