<svg width="62" height="58" viewBox="0 0 62 58" fill="none" xmlns="http://www.w3.org/2000/svg">
<path d="M52.8285 19.1306L52.7227 23.1683C53.5182 21.9178 54.1822 22.3826 54.1822 22.3826L54.0143 19.1245C53.1598 19.4606 52.827 19.1306 52.827 19.1306H52.8285Z" fill="#3393E8"/>
<path d="M24.9624 18.4477V18.6551C26.1089 17.5454 31.1696 16.7082 37.2408 16.7082C43.3119 16.7082 48.1125 17.503 49.4208 18.5703C49.4057 18.5476 49.3921 18.5249 49.3754 18.5007L49.4496 18.537V18.3145L49.4344 15.5242L52.9631 13.326L52.9827 16.7793C52.594 16.9459 52.3248 17.3289 52.3278 17.7755C52.3308 18.3614 52.8073 18.8368 53.3971 18.8307C53.9915 18.8277 54.4619 18.3478 54.4589 17.7634C54.4559 17.3168 54.1836 16.9368 53.7934 16.7733L53.7707 12.8733L57.5187 10.7749L37.1077 0L16.8086 10.9914L24.9473 15.6696L24.9639 18.4492L24.9624 18.4477ZM37.1561 8.95059C46.7649 8.89911 49.1516 12.4388 49.1516 12.4388L49.1561 13.2593C48.3394 12.3994 45.4097 10.1285 37.1621 10.1754C28.9024 10.2193 26.0106 12.5175 25.2029 13.3911L25.1984 12.569C25.1984 12.569 27.5412 9.00055 37.1561 8.95059Z" fill="#3393E8"/>
<path d="M1.71235 56.2432C1.69572 56.1524 1.74714 55.9328 1.73202 55.8405C1.73202 55.8405 4.9158 21.2584 35.5618 19.6975C22.14 20.347 14.6123 26.041 13.4719 26.9676C13.3933 27.0312 13.2768 27.0039 13.2345 26.9131L9.1432 18.0851C9.07513 17.9398 8.85884 17.9807 8.84826 18.1411L8.04816 31.1189C8.04513 31.1567 8.0285 31.1931 8.00127 31.2203C-0.250852 39.255 0.764021 50.6158 0.857795 51.5014C0.862332 51.5378 0.851747 51.5741 0.832085 51.6044L-10.4707 68.2187C-10.5811 68.3807 -10.3527 68.5548 -10.2257 68.4064L1.14517 55.0805C1.22533 54.9851 1.37961 55.0199 1.41137 55.141C1.49758 55.4665 1.60194 55.8586 1.72143 56.2871C1.7184 56.272 1.71538 56.2583 1.71084 56.2432H1.71235Z" fill="#3393E8"/>
<path d="M59.6598 24.0456C6.44749 4.60774 1.73005 55.8404 1.73005 55.8404C1.74517 55.9328 1.69375 56.1523 1.71039 56.2432C2.32143 59.0379 4.13792 62.1582 4.13792 62.1582C12.4203 30.1166 39.2745 24.4528 60.2209 28.0409C60.9938 26.6663 61.8604 25.3839 59.6613 24.0471L59.6598 24.0456Z" fill="#3393E8"/>
<path d="M60.2236 28.0394C39.2787 24.4513 12.423 30.1166 4.14062 62.1567L5.64404 64.5049C5.64404 64.5049 6.54094 69.5888 5.42019 71.1573C4.29944 72.7272 9.82606 68.6153 9.82606 68.6153C13.6345 71.3813 20.1321 73.5493 23.4929 73.5493L33.4254 89.6958C32.1821 86.4059 27.7188 74.0641 38.282 60.4535C31.8357 61.5254 26.4982 66.6714 26.4982 66.6714C26.4982 66.6714 18.0389 63.981 19.6587 55.2136L23.5125 52.2765C23.5125 52.2765 40.7277 52.5718 47.8469 67.7584C49.2293 56.7579 39.6916 47.0034 39.6916 47.0034C39.6916 47.0034 48.0541 41.7454 50.7494 36.28L40.5764 32.9659C40.3949 32.9038 40.4539 32.6328 40.6445 32.6525C43.5076 32.9447 51.2001 33.8667 53.7895 34.2739C54.8633 33.9151 59.5642 30.5874 60.2206 28.0379L60.2236 28.0394Z" fill="#3393E8"/>
</svg>
